<svg width="783" height="276" viewBox="0 0 783 276" fill="none" xmlns="http://www.w3.org/2000/svg">
<path d="M737.983 75.2026C736.483 69.3817 722.666 67.6593 703.478 69.9661C702.471 68.4019 701.337 66.928 700.088 65.5601L712.337 60.0006C712.524 59.9232 712.694 59.808 712.836 59.6618C712.978 59.5157 713.091 59.3416 713.166 59.15C713.241 58.9584 713.278 58.7532 713.275 58.5466C713.271 58.3401 713.227 58.1364 713.145 57.9477C713.062 57.7591 712.944 57.5893 712.796 57.4487C712.649 57.308 712.475 57.1992 712.286 57.1288C712.096 57.0585 711.895 57.028 711.693 57.0392C711.492 57.0504 711.295 57.1031 711.114 57.194L697.747 63.284C696.531 62.1827 695.234 61.1776 693.869 60.2775L703.336 55.9637C703.522 55.8863 703.692 55.7711 703.835 55.6249C703.977 55.4788 704.089 55.3047 704.165 55.1131C704.24 54.9215 704.277 54.7163 704.273 54.5097C704.27 54.3031 704.225 54.0994 704.143 53.9108C704.061 53.7221 703.943 53.5524 703.795 53.4117C703.648 53.271 703.474 53.1622 703.284 53.0919C703.095 53.0215 702.893 52.9911 702.692 53.0023C702.491 53.0135 702.294 53.0661 702.113 53.1571L690.591 58.4089C685.874 56.0717 680.671 54.9557 675.435 55.1585C670.2 55.3614 665.093 56.8769 660.562 59.5724C656.031 62.2679 652.213 66.0611 649.444 70.6199C646.675 75.1787 645.038 80.364 644.677 85.7217C626.825 93.3266 615.581 101.754 617.066 107.583C618.566 113.542 632.976 115.203 652.823 112.673C647.79 112.304 644.572 111.058 644.002 108.913C642.644 103.592 658.359 94.7722 679.107 89.2281C699.855 83.684 717.768 83.4918 719.118 88.8129C719.553 90.5122 718.233 92.573 715.57 94.7645C730.362 87.7825 739.318 80.4468 737.983 75.2026Z" fill="#642EFF"/>
<path d="M685.359 110.862C701.553 106.528 713.823 99.6476 712.765 95.4933C711.707 91.3391 697.722 91.4843 681.528 95.8177C665.334 100.151 653.064 107.032 654.121 111.186C655.179 115.34 669.165 115.195 685.359 110.862Z" fill="#642EFF"/>
<path d="M115.855 172.899C105.501 168.953 103.902 168.506 103.902 166.203C103.902 163.9 106.143 163.16 109.341 163.16C117.237 163.16 125.252 166.995 130.908 171.712L145.21 154.161C137.097 147.059 125.252 142.636 111.907 142.636C91.515 142.636 78.2788 154.709 78.2788 169.521C78.2788 180.823 84.7933 185.865 98.6711 191.13C109.529 195.3 110.94 196.071 110.94 198.485C110.94 200.677 108.699 201.884 105.501 201.884C97.6051 201.884 88.85 198.374 80.3121 191.029L66 208.57C75.0808 217.021 87.9913 222.509 102.836 222.509C124.285 222.509 136.672 210.436 136.672 194.965C136.672 183.207 128.559 177.728 115.855 172.899Z" fill="#642EFF"/>
<path d="M213.631 165.687L219.287 143.967H150.333L144.677 165.687H166.668L152.257 220.766H177.229L191.64 165.687H213.631Z" fill="#642EFF"/>
<path d="M236.995 143.967L185.323 221.314H212.546L219.06 210.996H245.207L246.49 221.314H273.071L261.76 143.967H236.995ZM230.174 192.755L241.812 174.108L243.845 192.755H230.174Z" fill="#642EFF"/>
<path d="M357.503 168.214C357.503 162.177 355.795 156.476 351.63 152.194C346.606 147.03 337.861 143.967 324.092 143.967H294.954L274.888 220.766H299.86L305.624 198.822H311.823L320.144 220.766H347.05L336.696 195.19C351.423 190.482 357.503 180.175 357.503 168.214ZM319.403 180.5H310.322L314.271 165.464H323.154C326.678 165.464 329.135 166.235 330.517 167.666C331.038 168.196 331.448 168.829 331.725 169.526C332.001 170.223 332.138 170.971 332.126 171.724C332.106 176.553 327.724 180.5 319.403 180.5Z" fill="#642EFF"/>
<path d="M387.715 175.67L390.271 165.911H427.848L433.612 143.967H371.064L350.987 220.766H375.969L382.484 195.646H417.385L422.617 175.67H387.715Z" fill="#642EFF"/>
<path d="M464.469 143.967H439.487L419.421 220.766H478.456L484.21 198.822H450.157L464.469 143.967Z" fill="#642EFF"/>
<path d="M504.492 143.967L484.426 220.766H548.692L554.131 199.704H514.422L516.663 191.365H553.173L557.98 172.82H521.469L523.493 165.028H563.348L568.895 143.967H504.492Z" fill="#642EFF"/>
<path d="M608.062 143.967L602.22 165.028H619.021L604.384 220.766H629.366L644.003 165.028H706.737L712.284 143.967H671.423H608.062Z" fill="#642EFF"/>
<path d="M576.805 143.967L556.345 221.177H581.327L601.787 143.967H576.805Z" fill="#642EFF"/>
</svg>
