<svg width="224" height="42" viewBox="0 0 224 42" fill="none" xmlns="http://www.w3.org/2000/svg">
<path d="M195.5 5.50123C195.129 4.05897 191.705 3.6322 186.951 4.20377C186.702 3.8162 186.421 3.45099 186.111 3.11206L189.146 1.73458C189.192 1.71539 189.234 1.68684 189.27 1.65063C189.305 1.61442 189.333 1.57129 189.351 1.52382C189.37 1.47634 189.379 1.4255 189.378 1.37431C189.377 1.32313 189.367 1.27266 189.346 1.22592C189.326 1.17918 189.296 1.13712 189.26 1.10226C189.223 1.0674 189.18 1.04045 189.133 1.02302C189.086 1.00559 189.036 0.998036 188.987 1.00081C188.937 1.00358 188.888 1.01663 188.843 1.03917L185.531 2.54812C185.23 2.27523 184.908 2.0262 184.57 1.80317L186.916 0.734328C186.962 0.715145 187.004 0.686595 187.039 0.650384C187.075 0.614172 187.103 0.571043 187.121 0.523567C187.14 0.476092 187.149 0.425246 187.148 0.374064C187.147 0.322881 187.136 0.272412 187.116 0.22567C187.096 0.178929 187.066 0.136872 187.03 0.102011C186.993 0.0671506 186.95 0.0401985 186.903 0.0227679C186.856 0.00533732 186.806 -0.00221412 186.756 0.000560106C186.706 0.00333433 186.658 0.0163798 186.613 0.0389172L183.758 1.34019C182.589 0.761097 181.3 0.484571 180.003 0.534827C178.706 0.585083 177.44 0.96059 176.318 1.62846C175.195 2.29634 174.249 3.2362 173.563 4.36576C172.877 5.49531 172.471 6.7801 172.382 8.1076C167.958 9.99188 165.172 12.08 165.54 13.5242C165.912 15.0007 169.482 15.4123 174.4 14.7855C173.153 14.694 172.356 14.3854 172.214 13.8538C171.878 12.5354 175.772 10.3501 180.913 8.97639C186.053 7.60271 190.492 7.55508 190.826 8.8735C190.934 9.29456 190.607 9.80516 189.947 10.3482C193.612 8.6182 195.831 6.80061 195.5 5.50123Z" fill="#642EFF"/>
<path d="M182.461 14.3367C186.474 13.263 189.514 11.5582 189.252 10.5288C188.99 9.49953 185.525 9.53552 181.512 10.6092C177.5 11.6829 174.46 13.3878 174.722 14.4171C174.984 15.4464 178.449 15.4104 182.461 14.3367Z" fill="#642EFF"/>
<path d="M41.3529 29.7078C38.7874 28.73 38.3912 28.6194 38.3912 28.0487C38.3912 27.4781 38.9464 27.2946 39.7388 27.2946C41.6953 27.2946 43.6811 28.2448 45.0825 29.4137L48.6262 25.0649C46.6159 23.3053 43.6811 22.2094 40.3746 22.2094C35.322 22.2094 32.0424 25.2007 32.0424 28.8707C32.0424 31.671 33.6565 32.9203 37.095 34.225C39.7852 35.2581 40.135 35.4491 40.135 36.0474C40.135 36.5904 39.5798 36.8895 38.7874 36.8895C36.8309 36.8895 34.6616 36.0198 32.5462 34.1998L29 38.5461C31.25 40.64 34.4489 41.9999 38.1271 41.9999C43.4415 41.9999 46.5107 39.0086 46.5107 35.1751C46.5107 32.2617 44.5004 30.9043 41.3529 29.7078Z" fill="#642EFF"/>
<path d="M65.5793 27.9211L66.9807 22.5392H49.8955L48.4941 27.9211H53.943L50.3724 41.5681H56.5598L60.1305 27.9211H65.5793Z" fill="#642EFF"/>
<path d="M71.3683 22.5392L58.5654 41.7038H65.3105L66.9246 39.1474H73.4031L73.721 41.7038H80.3071L77.5044 22.5392H71.3683ZM69.6784 34.6277L72.5618 30.0075L73.0656 34.6277H69.6784Z" fill="#642EFF"/>
<path d="M101.227 28.547C101.227 27.0513 100.804 25.6386 99.7716 24.5778C98.5268 23.2983 96.36 22.5392 92.9483 22.5392H85.7288L80.7568 41.5681H86.9443L88.3725 36.1309H89.9084L91.9701 41.5681H98.6369L96.0714 35.231C99.7203 34.0646 101.227 31.5107 101.227 28.547ZM91.7866 31.5911H89.5367L90.5149 27.8658H92.716C93.5891 27.8658 94.198 28.0568 94.5404 28.4112C94.6693 28.5426 94.7711 28.6994 94.8396 28.8722C94.9081 29.045 94.9419 29.2302 94.9391 29.4167C94.9342 30.6133 93.8483 31.5911 91.7866 31.5911Z" fill="#642EFF"/>
<path d="M108.713 30.3946L109.347 27.9764H118.657L120.086 22.5392H104.588L99.6133 41.5681H105.803L107.417 35.3441H116.065L117.361 30.3946H108.713Z" fill="#642EFF"/>
<path d="M127.731 22.5392H121.541L116.569 41.5681H131.197L132.622 36.1309H124.185L127.731 22.5392Z" fill="#642EFF"/>
<path d="M137.648 22.5392L132.676 41.5681H148.599L149.947 36.3496H140.108L140.663 34.2833H149.71L150.901 29.6882H141.854L142.356 27.7577H152.231L153.605 22.5392H137.648Z" fill="#642EFF"/>
<path d="M163.309 22.5392L161.861 27.7577H166.024L162.397 41.5681H168.587L172.214 27.7577H187.758L189.132 22.5392H179.008H163.309Z" fill="#642EFF"/>
<path d="M155.565 22.5392L150.495 41.6701H156.685L161.755 22.5392H155.565Z" fill="#642EFF"/>
</svg>
